<svg width="18" height="18" viewBox="0 0 18 18" fill="none" xmlns="http://www.w3.org/2000/svg">
<path fill-rule="evenodd" clip-rule="evenodd" d="M13.5 0C13.9971 0 14.4 0.402944 14.4 0.9V1.8H15.3C16.7912 1.8 18 3.00883 18 4.5V15.3C18 16.7912 16.7912 18 15.3 18H2.7C1.20883 18 0 16.7912 0 15.3V4.5C0 3.00883 1.20883 1.8 2.7 1.8H3.6V0.9C3.6 0.402944 4.00294 0 4.5 0C4.99706 0 5.4 0.402944 5.4 0.9V1.8H12.6V0.9C12.6 0.402944 13.0029 0 13.5 0ZM13.5 10.8C13.9971 10.8 14.4 11.2029 14.4 11.7V13.5C14.4 13.9971 13.9971 14.4 13.5 14.4H11.7C11.2029 14.4 10.8 13.9971 10.8 13.5V11.7C10.8 11.2029 11.2029 10.8 11.7 10.8H13.5ZM3.6 3.6H2.7C2.20294 3.6 1.8 4.00294 1.8 4.5V7.2H16.2V4.5C16.2 4.00294 15.7971 3.6 15.3 3.6H14.4V4.5C14.4 4.99706 13.9971 5.4 13.5 5.4C13.0029 5.4 12.6 4.99706 12.6 4.5V3.6H5.4V4.5C5.4 4.99706 4.99706 5.4 4.5 5.4C4.00294 5.4 3.6 4.99706 3.6 4.5V3.6Z" fill="white"/>
</svg>
