<svg width="15" height="21" viewBox="0 0 15 21" fill="none" xmlns="http://www.w3.org/2000/svg">
<path d="M7.25789 0C3.24531 0 0 3.24531 0 7.25789C0 11.9668 5.43138 18.6155 6.89712 20.324C7.08998 20.5488 7.4258 20.5488 7.61866 20.324C9.0844 18.6155 14.5158 11.9668 14.5158 7.25789C14.5158 3.24531 11.2705 0 7.25789 0ZM7.25789 9.84999C5.82705 9.84999 4.66579 8.68873 4.66579 7.25789C4.66579 5.82705 5.82705 4.66579 7.25789 4.66579C8.68873 4.66579 9.84999 5.82705 9.84999 7.25789C9.84999 8.68873 8.68873 9.84999 7.25789 9.84999Z" fill="white"/>
</svg>
