<svg width="15" height="19" viewBox="0 0 15 19" fill="none" xmlns="http://www.w3.org/2000/svg">
<path d="M9.73671 2.81592C8.20915 2.81592 6.94756 1.82439 5.02701 1.82439C4.31564 1.82439 3.67841 1.94936 3.0873 2.16683C3.16923 1.95288 3.20409 1.7238 3.18953 1.49517C3.13901 0.684566 2.47451 0.0343684 1.66299 0.00135825C0.750995 -0.0357568 0 0.692576 0 1.59634C0 2.13869 0.270723 2.61757 0.684148 2.90605V17.3191C0.684148 17.697 0.990447 18.0033 1.3683 18.0033H1.8244C2.20224 18.0033 2.50854 17.697 2.50854 17.3191V11.22C3.31558 10.8761 4.32102 10.5894 5.77065 10.5894C7.29824 10.5894 8.55981 11.5809 10.4804 11.5809C11.8535 11.5809 12.9509 11.1165 13.9725 10.4162C14.22 10.2466 14.3671 9.96492 14.3671 9.66487V2.73502C14.3671 2.06817 13.6753 1.62698 13.0705 1.90788C12.0917 2.3625 10.8911 2.81592 9.73671 2.81592Z" fill="white"/>
</svg>
